<svg width="512" height="512" viewBox="0 0 512 512" fill="none" xmlns="http://www.w3.org/2000/svg">
<g clip-path="url(#clip0)">
<path fill-rule="evenodd" clip-rule="evenodd" d="M256.077 0C397.403 0 512.154 114.597 512.154 256.077C512.154 397.403 397.557 512.154 256.077 512.154C114.751 512.154 0 397.557 0 256.077C0 114.751 114.597 0 256.077 0ZM223.05 205.23H275.586V232.113H276.354C283.728 218.902 301.547 205.23 328.276 205.23C383.731 205.23 394.023 239.794 394.023 284.649V376.204H339.183V295.095C339.183 275.74 338.722 250.854 310.61 250.854C282.038 250.854 277.737 271.899 277.737 293.713V376.204H222.896V205.23H223.05ZM185.107 157.763C185.107 173.432 172.356 186.335 156.534 186.335C140.865 186.335 127.962 173.585 127.962 157.763C127.962 142.094 140.712 129.191 156.534 129.191C172.203 129.191 185.107 141.941 185.107 157.763ZM128.115 205.23H185.107V376.204H128.115V205.23Z" fill="white"/>
</g>
<defs>
<clipPath id="clip0">
<rect width="512" height="512" fill="white"/>
</clipPath>
</defs>
</svg>
